<svg width="238" height="35" viewBox="0 0 238 35" fill="none" xmlns="http://www.w3.org/2000/svg">
<path d="M15.4023 9.55848H24.062V3.48705H0V9.55848H8.69173V33.9081H15.4023V9.55848ZM26.6184 7.4175C26.6184 9.55848 28.3759 11.3479 30.5489 11.3479C32.6899 11.3479 34.4793 9.55848 34.4793 7.4175C34.4793 5.24457 32.6899 3.48705 30.5489 3.48705C28.3759 3.48705 26.6184 5.24457 26.6184 7.4175ZM33.9041 33.9081V14.1919H27.1936V33.9081H33.9041ZM49.562 18.9532C51.8947 18.9532 53.3647 20.1675 53.4605 22.0848H60.1391C59.8196 17.5472 55.7293 13.7446 49.3384 13.7446C42.7556 13.7446 38.3778 18.4419 38.3778 24.066C38.3778 29.6901 42.5 34.3555 49.3384 34.3555C55.3459 34.3555 59.3083 30.9683 59.9793 26.5585H53.4605C53.2369 28.348 51.6391 29.2427 49.562 29.2427C46.4305 29.2427 45.5357 26.3987 45.5357 24.0979C45.5357 21.8611 46.5263 18.9532 49.562 18.9532ZM70.9079 25.1844L77.8421 33.9081H86.438L77.0433 23.5867L85.5433 14.1919H77.203L70.9079 22.0209V0.355469H64.1974V33.9081H70.9079V25.1844ZM93.8515 21.7013C93.8515 21.7013 94.0752 18.0265 98.2933 18.0265C102.352 18.0265 102.671 21.7013 102.671 21.7013H93.8515ZM109.126 23.6186C109.126 17.3235 104.141 13.7446 98.1654 13.7446C91.5188 13.7446 86.6617 17.8987 86.6617 24.066C86.6617 30.3292 91.359 34.3555 98.1654 34.3555C103.374 34.3555 107.592 31.7671 108.743 26.5585H101.904C101.872 27.9964 100.402 29.5622 98.0057 29.5622C95.3854 29.5622 93.7557 27.1656 93.7557 24.8649H109.062C109.062 24.4814 109.126 24.034 109.126 23.6186ZM121.812 19.3686H125.391V14.1919H121.812V6.65058H115.165V14.1919H111.586V19.3686H115.165V33.9081H121.812V19.3686ZM152.457 18.6656C152.457 23.363 148.207 27.6449 143.509 27.6449C138.812 27.6449 134.562 23.363 134.562 18.6656C134.562 13.9683 138.812 9.71825 143.509 9.71825C148.207 9.71825 152.457 13.9683 152.457 18.6656ZM154.087 30.1055C157.186 27.1976 159.167 23.1073 159.167 18.6976C159.167 10.2934 151.914 3.03968 143.509 3.03968C135.105 3.03968 127.852 10.2934 127.852 18.6976C127.852 27.1017 135.105 34.3555 143.509 34.3555C144.756 34.3555 145.97 34.1957 147.12 33.9081H160.957V28.5716H157.346L154.087 30.1055ZM163.258 25.4081C163.258 30.7446 165.399 34.3555 170.671 34.3555C173.259 34.3555 175.368 33.2051 176.711 31.4795V33.9081H183.421V14.1919H176.711V24.066C176.711 26.7183 175.049 28.987 172.94 28.987C170.863 28.987 169.968 27.6769 169.968 25.4081V14.1919H163.258V25.4081ZM195.5 24.066C195.5 21.4776 197.513 19.1449 200.197 19.1449C202.882 19.1449 204.895 21.4776 204.895 24.066C204.895 26.6543 202.882 28.987 200.197 28.987C197.513 28.987 195.5 26.6543 195.5 24.066ZM195.5 33.9081V31.5434C196.842 33.5566 199.718 34.3555 202.243 34.3555C207.835 34.3555 212.053 29.5303 212.053 24.066C212.053 18.6017 207.835 13.7446 202.243 13.7446C199.718 13.7446 197.258 14.4476 195.5 16.5886V0.355469H188.79V33.9081H195.5ZM222.374 21.7013C222.374 21.7013 222.598 18.0265 226.816 18.0265C230.874 18.0265 231.194 21.7013 231.194 21.7013H222.374ZM237.649 23.6186C237.649 17.3235 232.664 13.7446 226.688 13.7446C220.073 13.7446 215.184 17.8987 215.184 24.066C215.184 30.3292 219.882 34.3555 226.688 34.3555C231.929 34.3555 236.115 31.7671 237.297 26.5585H230.427C230.395 27.9964 228.925 29.5622 226.56 29.5622C223.908 29.5622 222.31 27.1656 222.31 24.8649H237.585C237.585 24.4814 237.649 24.034 237.649 23.6186Z" fill="#F8FBFD"/>
</svg>
