<svg width="57" height="63" viewBox="0 0 57 63" fill="none" xmlns="http://www.w3.org/2000/svg">
<path d="M28.0496 1.50834C28.6205 1.50834 29.1756 1.63202 29.5353 1.83942L51.9989 14.8088L29.5293 27.8484C29.171 28.0558 28.6175 28.1802 28.0488 28.1802C27.4802 28.1802 26.9266 28.0566 26.5691 27.8492L4.09494 14.8119L26.5639 1.83942C26.9229 1.63202 27.4787 1.50834 28.0496 1.50834ZM28.0496 0C27.2373 0 26.4259 0.177984 25.8097 0.533951L3.32343 13.5162C2.09112 14.2274 2.09036 15.3933 3.32116 16.1075L25.812 29.1546C26.4266 29.5114 27.2381 29.6893 28.0488 29.6893C28.8603 29.6893 29.671 29.5106 30.2864 29.1539L52.772 16.1053C54.0028 15.3911 54.0013 14.2251 52.769 13.5132L30.2895 0.533197C29.6733 0.177984 28.8618 0 28.0496 0ZM1.55716 19.0699L24.0849 32.1381C24.8489 32.5816 25.5714 33.835 25.5714 34.7181V60.7324L3.04288 47.726C2.2789 47.2856 1.55716 46.0344 1.55716 45.1528V19.0699ZM1.28943 17.4432C0.555629 17.4432 0.0488281 18.0284 0.0488281 19.0375V45.1528C0.0488281 46.5759 1.0564 48.3211 2.28871 49.033L24.8391 62.0522C25.1958 62.2581 25.5344 62.3554 25.8346 62.3554C26.5714 62.3554 27.079 61.7694 27.079 60.7588V34.7181C27.079 33.295 26.0722 31.5476 24.8413 30.8334L2.28569 17.7486C1.92897 17.542 1.59035 17.4432 1.28943 17.4432ZM54.5412 19.0646V45.1528C54.5412 46.0344 53.8188 47.2848 53.0548 47.726L30.5278 60.7324V34.7181C30.5278 33.835 31.2503 32.5808 32.0142 32.1374L54.5412 19.0646ZM54.809 17.4379C54.5088 17.4379 54.1694 17.5359 53.812 17.7433L31.2571 30.8334C30.0263 31.5476 29.0194 33.2958 29.0194 34.7181V60.7581C29.0194 61.7686 29.5285 62.3546 30.2638 62.3546C30.564 62.3546 30.9026 62.2573 31.2593 62.0514L53.8082 49.0322C55.0405 48.3211 56.0488 46.5752 56.0488 45.152V19.0314C56.0496 18.0224 55.5428 17.4379 54.809 17.4379Z" fill="url(#paint0_linear_8314_1850)"/>
<defs>
<linearGradient id="paint0_linear_8314_1850" x1="-1.62519" y1="2.26123" x2="61.9947" y2="60.4764" gradientUnits="userSpaceOnUse">
<stop stop-color="white"/>
<stop offset="1" stop-color="white"/>
</linearGradient>
</defs>
</svg>
