<svg width="21" height="21" viewBox="0 0 21 21" fill="none" xmlns="http://www.w3.org/2000/svg">
<path d="M18.94 5.32L13.18 1.29C11.61 0.189999 9.20002 0.249999 7.69001 1.42L2.68001 5.33C1.68001 6.11 0.890015 7.71 0.890015 8.97V15.87C0.890015 18.42 2.96001 20.5 5.51001 20.5H16.29C18.84 20.5 20.91 18.43 20.91 15.88V9.1C20.91 7.75 20.04 6.09 18.94 5.32ZM11.65 16.5C11.65 16.91 11.31 17.25 10.9 17.25C10.49 17.25 10.15 16.91 10.15 16.5V13.5C10.15 13.09 10.49 12.75 10.9 12.75C11.31 12.75 11.65 13.09 11.65 13.5V16.5Z" fill="#FF8142"/>
</svg>
