<svg width="40" height="18" viewBox="0 0 40 18" fill="none" xmlns="http://www.w3.org/2000/svg">
<path d="M7.30637 2.90625C6.83762 3.4625 6.08762 3.9 5.33762 3.8375C5.24387 3.0875 5.61262 2.2875 6.04387 1.8C6.51262 1.23125 7.33137 0.824997 8.00012 0.793747C8.07512 1.56875 7.76887 2.3375 7.30637 2.90625ZM7.98762 3.98125C6.90012 3.91875 5.96887 4.6 5.45637 4.6C4.93137 4.6 4.14387 4.0125 3.28137 4.03125C2.16262 4.05 1.12512 4.68125 0.556366 5.6875C-0.618634 7.70625 0.250116 10.6875 1.38762 12.3312C1.94387 13.1437 2.60637 14.0375 3.48137 14.0063C4.31262 13.975 4.63762 13.4687 5.63762 13.4687C6.64387 13.4687 6.93762 14.0062 7.81262 13.9937C8.71887 13.975 9.28761 13.1812 9.84387 12.3687C10.4751 11.4437 10.7376 10.55 10.7501 10.5C10.7314 10.4812 9.00011 9.81875 8.98136 7.81875C8.96262 6.14375 10.3501 5.35 10.4126 5.3C9.63137 4.1375 8.41262 4.0125 7.98762 3.98125ZM14.2626 1.71875V13.9H16.1564V9.7375H18.7751C21.1689 9.7375 22.8439 8.09375 22.8439 5.71875C22.8439 3.34375 21.1939 1.71875 18.8376 1.71875H14.2626ZM16.1564 3.3125H18.3376C19.9814 3.3125 20.9189 4.1875 20.9189 5.725C20.9189 7.2625 19.9814 8.15 18.3314 8.15H16.1564V3.3125ZM26.2939 13.9937C27.4814 13.9937 28.5814 13.3937 29.0814 12.4375H29.1189V13.9H30.8689V7.8375C30.8689 6.08125 29.4626 4.94375 27.3001 4.94375C25.2939 4.94375 23.8064 6.09375 23.7501 7.66875H25.4564C25.6001 6.91875 26.2939 6.425 27.2439 6.425C28.4001 6.425 29.0501 6.9625 29.0501 7.95625V8.63125L26.6876 8.775C24.4939 8.90625 23.3064 9.80625 23.3064 11.3687C23.3126 12.9437 24.5376 13.9937 26.2939 13.9937ZM26.8064 12.55C25.8001 12.55 25.1564 12.0625 25.1564 11.325C25.1564 10.5562 25.7751 10.1125 26.9564 10.0437L29.0564 9.9125V10.6C29.0564 11.7375 28.0876 12.55 26.8064 12.55ZM33.2126 17.2125C35.0564 17.2125 35.9251 16.5062 36.6814 14.375L40.0001 5.0625H38.0751L35.8501 12.2563H35.8126L33.5876 5.0625H31.6126L34.8126 13.9312L34.6376 14.4687C34.3501 15.3812 33.8814 15.7375 33.0439 15.7375C32.8939 15.7375 32.6064 15.7187 32.4876 15.7062V17.1688C32.6001 17.1938 33.0689 17.2125 33.2126 17.2125Z" fill="#111827"/>
</svg>
