<svg width="327" height="64" viewBox="0 0 327 64" fill="none" xmlns="http://www.w3.org/2000/svg">
<rect width="327" height="64" rx="16" fill="#F9FAFB"/>
<rect x="20.5" y="23.5" width="17" height="17" rx="8.5" stroke="#E5E7EB"/>
<path d="M49.952 37H51.752L53.024 32.38C53.288 31.456 53.54 30.436 53.78 29.476H53.828C54.08 30.424 54.332 31.456 54.596 32.38L55.868 37H57.728L54.884 28.12H52.796L49.952 37ZM51.716 34.72H55.94V33.352H51.716V34.72ZM58.6355 39.58H60.3995V37.54L60.3395 36.448C60.8435 36.916 61.4195 37.168 61.9955 37.168C63.4715 37.168 64.8515 35.848 64.8515 33.544C64.8515 31.468 63.8675 30.124 62.2115 30.124C61.4915 30.124 60.7955 30.496 60.2435 30.988H60.2075L60.0635 30.292H58.6355V39.58ZM61.6115 35.716C61.2515 35.716 60.8195 35.596 60.3995 35.224V32.26C60.8555 31.792 61.2635 31.564 61.7075 31.564C62.6435 31.564 63.0395 32.272 63.0395 33.568C63.0395 35.02 62.4155 35.716 61.6115 35.716ZM66.3582 39.58H68.1222V37.54L68.0622 36.448C68.5662 36.916 69.1422 37.168 69.7182 37.168C71.1942 37.168 72.5742 35.848 72.5742 33.544C72.5742 31.468 71.5902 30.124 69.9342 30.124C69.2142 30.124 68.5182 30.496 67.9662 30.988H67.9302L67.7862 30.292H66.3582V39.58ZM69.3342 35.716C68.9742 35.716 68.5422 35.596 68.1222 35.224V32.26C68.5782 31.792 68.9862 31.564 69.4302 31.564C70.3662 31.564 70.7622 32.272 70.7622 33.568C70.7622 35.02 70.1382 35.716 69.3342 35.716ZM75.7368 37.168C76.1568 37.168 76.4328 37.096 76.6368 37.024L76.4208 35.716C76.3008 35.74 76.2528 35.74 76.1928 35.74C76.0248 35.74 75.8448 35.608 75.8448 35.188V27.436H74.0808V35.116C74.0808 36.364 74.5008 37.168 75.7368 37.168ZM80.794 37.168C81.622 37.168 82.462 36.892 83.122 36.436L82.534 35.344C82.042 35.644 81.562 35.812 81.022 35.812C80.026 35.812 79.306 35.248 79.15 34.144H83.302C83.338 33.976 83.374 33.664 83.374 33.328C83.374 31.468 82.426 30.124 80.566 30.124C78.982 30.124 77.446 31.468 77.446 33.652C77.446 35.872 78.91 37.168 80.794 37.168ZM79.126 32.968C79.27 31.984 79.894 31.48 80.602 31.48C81.466 31.48 81.874 32.056 81.874 32.968H79.126ZM87.7014 37H89.4774V33.844H90.6654C92.5734 33.844 94.0854 32.944 94.0854 30.916C94.0854 28.804 92.5734 28.12 90.6174 28.12H87.7014V37ZM89.4774 32.44V29.536H90.4854C91.7094 29.536 92.3574 29.872 92.3574 30.916C92.3574 31.924 91.7694 32.44 90.5454 32.44H89.4774ZM96.6545 37.168C97.4225 37.168 98.0945 36.796 98.6825 36.292H98.7305L98.8625 37H100.303V33.088C100.303 31.132 99.4265 30.124 97.7225 30.124C96.6545 30.124 95.7065 30.52 94.9145 31L95.5505 32.176C96.1625 31.804 96.7745 31.54 97.3985 31.54C98.2265 31.54 98.5025 32.032 98.5385 32.692C95.8385 32.992 94.6745 33.748 94.6745 35.176C94.6745 36.328 95.4545 37.168 96.6545 37.168ZM97.2305 35.788C96.7145 35.788 96.3545 35.56 96.3545 35.044C96.3545 34.432 96.8945 33.988 98.5385 33.784V35.14C98.1065 35.56 97.7345 35.788 97.2305 35.788ZM102.676 39.7C104.188 39.7 104.908 38.788 105.496 37.216L107.884 30.292H106.192L105.256 33.4C105.1 34.036 104.932 34.672 104.788 35.308H104.728C104.524 34.66 104.356 34.012 104.152 33.4L103.096 30.292H101.308L103.924 36.88L103.816 37.276C103.612 37.876 103.228 38.308 102.556 38.308C102.388 38.308 102.208 38.248 102.088 38.212L101.764 39.568C102.016 39.652 102.292 39.7 102.676 39.7Z" fill="#111827"/>
<g clip-path="url(#clip0_1475_7253)">
<path d="M274.306 25.9062C273.838 26.4625 273.088 26.9 272.338 26.8375C272.244 26.0875 272.613 25.2875 273.044 24.8C273.513 24.2312 274.331 23.825 275 23.7937C275.075 24.5687 274.769 25.3375 274.306 25.9062ZM274.988 26.9812C273.9 26.9187 272.969 27.6 272.456 27.6C271.931 27.6 271.144 27.0125 270.281 27.0312C269.163 27.05 268.125 27.6812 267.556 28.6875C266.381 30.7062 267.25 33.6875 268.388 35.3312C268.944 36.1437 269.606 37.0375 270.481 37.0063C271.313 36.975 271.638 36.4687 272.638 36.4687C273.644 36.4687 273.938 37.0062 274.813 36.9937C275.719 36.975 276.288 36.1812 276.844 35.3687C277.475 34.4437 277.738 33.55 277.75 33.5C277.731 33.4812 276 32.8187 275.981 30.8187C275.963 29.1437 277.35 28.35 277.413 28.3C276.631 27.1375 275.413 27.0125 274.988 26.9812ZM281.263 24.7187V36.9H283.156V32.7375H285.775C288.169 32.7375 289.844 31.0937 289.844 28.7187C289.844 26.3437 288.194 24.7187 285.838 24.7187H281.263ZM283.156 26.3125H285.338C286.981 26.3125 287.919 27.1875 287.919 28.725C287.919 30.2625 286.981 31.15 285.331 31.15H283.156V26.3125ZM293.294 36.9937C294.481 36.9937 295.581 36.3937 296.081 35.4375H296.119V36.9H297.869V30.8375C297.869 29.0812 296.463 27.9437 294.3 27.9437C292.294 27.9437 290.806 29.0937 290.75 30.6687H292.456C292.6 29.9187 293.294 29.425 294.244 29.425C295.4 29.425 296.05 29.9625 296.05 30.9562V31.6312L293.688 31.775C291.494 31.9062 290.306 32.8062 290.306 34.3687C290.313 35.9437 291.538 36.9937 293.294 36.9937ZM293.806 35.55C292.8 35.55 292.156 35.0625 292.156 34.325C292.156 33.5562 292.775 33.1125 293.956 33.0437L296.056 32.9125V33.6C296.056 34.7375 295.088 35.55 293.806 35.55ZM300.213 40.2125C302.056 40.2125 302.925 39.5062 303.681 37.375L307 28.0625H305.075L302.85 35.2563H302.813L300.588 28.0625H298.613L301.813 36.9312L301.638 37.4687C301.35 38.3812 300.881 38.7375 300.044 38.7375C299.894 38.7375 299.606 38.7187 299.488 38.7062V40.1688C299.6 40.1938 300.069 40.2125 300.213 40.2125Z" fill="#111827"/>
</g>
<defs>
<clipPath id="clip0_1475_7253">
<rect width="40" height="32" fill="white" transform="translate(267 16)"/>
</clipPath>
</defs>
</svg>
