<svg width="20" height="20" viewBox="0 0 20 20" fill="none" xmlns="http://www.w3.org/2000/svg">
<path d="M2.5 9.16667H9.16667V2.5H2.5V9.16667ZM4.16667 4.16667H7.5V7.5H4.16667V4.16667ZM2.5 17.5H9.16667V10.8333H2.5V17.5ZM4.16667 12.5H7.5V15.8333H4.16667V12.5ZM10.8333 2.5V9.16667H17.5V2.5H10.8333ZM15.8333 7.5H12.5V4.16667H15.8333V7.5ZM10.8417 10.8333H12.5083V12.5H10.8417V10.8333ZM12.5083 12.5H14.175V14.1667H12.5083V12.5ZM10.8417 14.1667H12.5083V15.8333H10.8417V14.1667ZM14.175 14.1667H15.8417V15.8333H14.175V14.1667ZM15.8417 15.8333H17.5083V17.5H15.8417V15.8333ZM12.5083 15.8333H14.175V17.5H12.5083V15.8333ZM14.175 10.8333H15.8417V12.5H14.175V10.8333ZM15.8417 12.5H17.5083V14.1667H15.8417V12.5Z" fill="#00334E"/>
</svg>
