<svg width="81" height="16" viewBox="0 0 81 16" fill="none" xmlns="http://www.w3.org/2000/svg">
<g clip-path="url(#clip0_2200_5386)">
<path d="M25.3962 2.01848C22.6299 2.01848 20.1577 3.37731 20.1577 5.88786C20.1577 8.76698 24.5422 8.96584 24.5422 10.4122C24.5422 11.0212 23.8057 11.5664 22.5479 11.5664C20.7627 11.5664 19.4285 10.8046 19.4285 10.8046L18.8576 13.3381C18.8576 13.3381 20.3946 13.9815 22.4352 13.9815C25.4597 13.9815 27.8397 12.556 27.8397 10.0025C27.8397 6.96018 23.4369 6.76723 23.4369 5.42474C23.4369 4.94767 24.0415 4.42494 25.2958 4.42494C26.711 4.42494 27.8656 4.97894 27.8656 4.97894L28.4243 2.53209C28.4243 2.53209 27.168 2.01848 25.3962 2.01848ZM0.0865164 2.20315L0.0195312 2.57248C0.0195312 2.57248 1.18335 2.77433 2.23156 3.17698C3.58122 3.6387 3.67737 3.90749 3.90467 4.74234L6.3816 13.7911H9.70193L14.8172 2.20315H11.5044L8.2176 10.0818L6.87637 3.40349C6.75337 2.63916 6.13033 2.20315 5.36769 2.20315H0.0865164ZM16.1493 2.20315L13.5505 13.7911H16.7095L19.2991 2.20315H16.1493ZM33.7679 2.20315C33.0061 2.20315 32.6025 2.58963 32.3064 3.26499L27.6783 13.7911H30.991L31.632 12.0367H35.6678L36.0575 13.7911H38.9805L36.4305 2.20315H33.7679ZM34.1987 5.33385L35.1806 9.68221H32.55L34.1987 5.33385Z" fill="#1434CB"/>
</g>
<g clip-path="url(#clip1_2200_5386)">
<path fill-rule="evenodd" clip-rule="evenodd" d="M64.3875 14.269H71.3462V1.70798H64.3875V14.269Z" fill="#FF5F00"/>
<path fill-rule="evenodd" clip-rule="evenodd" d="M64.8295 7.98847C64.8295 5.44015 66.0173 3.17054 67.867 1.70798C66.5141 0.63819 64.8074 0 62.9521 0C58.5602 0 55 3.57662 55 7.98847C55 12.4003 58.5602 15.9769 62.9521 15.9769C64.8074 15.9769 66.5141 15.3388 67.867 14.269C66.0173 12.8062 64.8295 10.5368 64.8295 7.98847Z" fill="#EB001B"/>
<path fill-rule="evenodd" clip-rule="evenodd" d="M80.4856 12.9386V12.6286H80.405L80.3124 12.8418L80.2197 12.6286H80.139V12.9386H80.1958V12.7047L80.2828 12.9064H80.3418L80.4289 12.7043V12.9386H80.4856ZM79.9751 12.9386V12.6814H80.0785V12.629H79.8156V12.6814H79.9188V12.9386H79.9751ZM80.7339 7.98841C80.7339 12.4003 77.1735 15.9769 72.7818 15.9769C70.9266 15.9769 69.2196 15.3387 67.8669 14.2689C69.7166 12.8063 70.9045 10.5367 70.9045 7.98841C70.9045 5.44031 69.7166 3.17069 67.8669 1.70791C69.2196 0.638122 70.9266 -6.86646e-05 72.7818 -6.86646e-05C77.1735 -6.86646e-05 80.7339 3.57655 80.7339 7.98841Z" fill="#F79E1B"/>
</g>
<defs>
<clipPath id="clip0_2200_5386">
<rect width="39" height="12" fill="white" transform="translate(0 2)"/>
</clipPath>
<clipPath id="clip1_2200_5386">
<rect width="26" height="16" fill="white" transform="translate(55)"/>
</clipPath>
</defs>
</svg>
