<svg width="17" height="20" viewBox="0 0 17 20" fill="none" xmlns="http://www.w3.org/2000/svg">
<path d="M4.8646 19.322L5.21122 17.1203L4.43911 17.1024H0.752197L3.31441 0.856272C3.32204 0.806632 3.34725 0.761387 3.38545 0.728783C3.42365 0.696179 3.4723 0.678388 3.52252 0.678653H9.73917C11.803 0.678653 13.2273 1.10812 13.9709 1.95578C14.3195 2.35344 14.5415 2.76899 14.6489 3.22629C14.7615 3.70612 14.7635 4.27941 14.6535 4.97862L14.6456 5.02965V5.47767L14.9942 5.67517C15.2603 5.81 15.4995 5.99239 15.7 6.21333C15.9982 6.55332 16.1911 6.98544 16.2726 7.49775C16.3568 8.02464 16.329 8.65161 16.1911 9.36142C16.032 10.1779 15.7749 10.8891 15.4276 11.471C15.1212 11.9923 14.7092 12.4438 14.2181 12.7965C13.7568 13.1239 13.2087 13.3724 12.589 13.5315C11.9886 13.6879 11.3039 13.7668 10.553 13.7668H10.0692C9.72327 13.7668 9.38725 13.8914 9.12347 14.1147C8.86007 14.3404 8.68533 14.6523 8.63038 14.9949L8.59393 15.193L7.98154 19.0735L7.95371 19.2159C7.94642 19.261 7.93382 19.2835 7.91527 19.2988C7.89729 19.3135 7.87486 19.3217 7.85164 19.322H4.8646Z" fill="#253B80"/>
<path d="M15.3242 5.08138C15.3057 5.20001 15.2845 5.32129 15.2606 5.44589C14.4408 9.65506 11.636 11.1091 8.05379 11.1091H6.22989C5.7918 11.1091 5.42265 11.4273 5.35438 11.8594L4.42056 17.7818L4.15612 19.4605C4.14559 19.5271 4.14961 19.5952 4.16791 19.6601C4.18621 19.725 4.21836 19.7851 4.26213 19.8364C4.30591 19.8877 4.36028 19.9289 4.42149 19.9571C4.48271 19.9853 4.54932 20 4.61674 20H7.85165C8.23472 20 8.56014 19.7217 8.62045 19.3439L8.65226 19.1795L9.26133 15.3143L9.30044 15.1023C9.36008 14.7232 9.68616 14.4448 10.0692 14.4448H10.553C13.6872 14.4448 16.1407 13.1723 16.8578 9.49003C17.1574 7.95177 17.0023 6.66735 16.2097 5.76401C15.9584 5.48457 15.6584 5.25325 15.3242 5.08138Z" fill="#179BD7"/>
<path d="M14.4667 4.73937C14.205 4.66364 13.9387 4.60454 13.6694 4.56241C13.1375 4.48066 12.5998 4.44143 12.0616 4.44511H7.189C7.00357 4.44496 6.8242 4.51116 6.68332 4.63174C6.54244 4.75232 6.44935 4.91933 6.42087 5.10256L5.38432 11.6678L5.35449 11.8594C5.38678 11.6504 5.49281 11.4598 5.6534 11.3222C5.81398 11.1846 6.01851 11.109 6.22999 11.1091H8.0539C11.6361 11.1091 14.4409 9.65437 15.2607 5.44587C15.2852 5.32127 15.3058 5.19999 15.3243 5.08135C15.108 4.96791 14.8825 4.8728 14.6503 4.79703C14.5894 4.77683 14.5282 4.75761 14.4667 4.73937Z" fill="#222D65"/>
<path d="M6.42075 5.10256C6.44899 4.91927 6.54203 4.75219 6.68298 4.63168C6.82393 4.51116 7.00344 4.44519 7.18888 4.44577H12.0615C12.6387 4.44577 13.1776 4.48355 13.6693 4.56308C14.0021 4.61538 14.3303 4.6936 14.6509 4.79703C14.8928 4.87722 15.1174 4.972 15.3249 5.08135C15.5688 3.52586 15.3229 2.46678 14.4819 1.50777C13.5547 0.452 11.8812 0 9.73983 0H3.52318C3.08576 0 2.71263 0.318123 2.64503 0.750903L0.05564 17.1641C0.043579 17.2403 0.0481678 17.3182 0.0690907 17.3924C0.0900135 17.4667 0.126774 17.5355 0.176843 17.5942C0.226912 17.6529 0.289102 17.7001 0.359134 17.7325C0.429167 17.7648 0.50538 17.7816 0.582531 17.7818H4.42055L5.3842 11.6678L6.42075 5.10256Z" fill="#253B80"/>
</svg>
