<svg width="57" height="20" viewBox="0 0 57 20" fill="none" xmlns="http://www.w3.org/2000/svg">
<path d="M14.5731 1.74239C14.6428 3.31831 16.0095 9.33212 16.0095 9.33212C16.5116 10.5501 16.944 9.33212 16.944 9.33212C18.5974 4.39159 15.2186 1.52849 15.2186 1.52849C14.3561 1.02623 14.5731 1.74239 14.5731 1.74239ZM34.1911 0.883759C34.1911 0.883759 35.8453 2.02923 34.1911 2.24389C34.1911 2.24389 28.0105 2.95966 23.4115 7.25697C23.4115 7.25697 16.5116 13.2696 13.9252 19.8575C13.9252 19.8575 13.0627 19.8575 13.3513 18.5692C13.6385 17.2805 15.3624 11.6234 23.0511 4.67919C23.0511 4.67919 30.4554 -2.05191 34.1911 0.883759Z" fill="#FF4600"/>
<path d="M2.7478 10.4159C3.02082 10.4733 3.266 10.5014 3.62596 10.5014C5.03567 10.5014 5.98551 9.59797 5.98551 8.4506C5.98551 7.41835 5.25187 7.04603 4.30279 7.04603C3.88449 7.04603 3.568 7.0749 3.36667 7.13151L2.7478 10.4159ZM1.9562 5.94159C2.54647 5.7976 3.42463 5.71212 4.28792 5.71212C5.19506 5.71212 6.1449 5.8979 6.77788 6.40054C7.33917 6.83061 7.67015 7.46052 7.67015 8.32219C7.67015 9.4688 7.12296 10.4019 6.43203 10.9463C5.6553 11.5629 4.54606 11.8642 3.39489 11.8642C3.04904 11.8642 2.7478 11.8205 2.48851 11.7924L1.78308 15.4496H0.143066L1.9562 5.94159Z" fill="#111827"/>
<path d="M12.1164 9.66937C11.9441 9.62568 11.7287 9.59794 11.4263 9.59794C9.88616 9.59794 8.67702 11.3338 8.67702 12.9257C8.67702 13.6559 8.95042 14.2588 9.68483 14.2588C10.4757 14.2588 11.4263 13.2843 11.7573 11.5055L12.1164 9.66937ZM11.4404 15.4495C11.4404 15.0327 11.4976 14.4743 11.5559 13.8854H11.5269C10.8364 15.1627 9.90027 15.6068 9.008 15.6068C7.75616 15.6068 6.93481 14.6315 6.93481 13.2266C6.93481 10.846 8.60458 8.30734 11.872 8.30734C12.6347 8.30734 13.4552 8.45057 14.0024 8.62268L13.2684 12.2654C13.0663 13.2976 12.9515 14.6175 12.9805 15.4495H11.4404Z" fill="#111827"/>
<path d="M23.5278 12.6815C23.5278 13.6412 24.0316 14.3171 24.8952 14.3171C26.1475 14.3171 26.9825 12.5953 26.9825 11.2044C26.9825 10.4867 26.6508 9.59767 25.6441 9.59767C24.3053 9.59767 23.5278 11.3765 23.5278 12.6815ZM28.7095 11.1907C28.7095 13.5705 27.0538 15.6065 24.6653 15.6065C22.8941 15.6065 21.8013 14.3877 21.8013 12.7237C21.8013 10.3583 23.4562 8.30745 25.8455 8.30745C27.7307 8.30745 28.7095 9.65542 28.7095 11.1907Z" fill="#111827"/>
<path d="M29.0249 15.4495L29.932 10.6306C30.1044 9.79854 30.2051 9.06719 30.2916 8.46539H31.7894L31.6308 9.71306H31.659C32.3061 8.78035 33.1991 8.30734 34.1779 8.30734C35.185 8.30734 35.9625 8.91028 35.9625 10.2294C35.9625 10.5443 35.906 11.0318 35.8336 11.3764L35.0694 15.4495H33.3856L34.1333 11.5055C34.1779 11.2476 34.2206 10.9463 34.2206 10.6735C34.2206 10.0854 34.0048 9.66937 33.3429 9.66937C32.5802 9.66937 31.601 10.5869 31.299 12.2228L30.6947 15.4495H29.0249Z" fill="#111827"/>
<path d="M40.4225 9.55495C39.3712 9.55495 38.6811 10.4869 38.4797 11.3338C40.2063 11.3478 41.3156 11.1183 41.3156 10.2726C41.3156 9.82812 40.9556 9.55495 40.4225 9.55495ZM42.0202 15.0475C41.3289 15.4058 40.3943 15.6068 39.5444 15.6068C37.6031 15.6068 36.667 14.4172 36.667 12.7102C36.667 10.602 38.2205 8.30766 40.6387 8.30766C42.0202 8.30766 42.8984 9.096 42.8984 10.2726C42.8984 12.0647 41.0136 12.638 38.3078 12.581C38.2784 12.8246 38.336 13.2976 38.4946 13.5704C38.7684 14.0441 39.2706 14.2877 39.9337 14.2877C40.726 14.2877 41.3583 14.0867 41.8635 13.8287L42.0202 15.0475Z" fill="#111827"/>
<path d="M46.9413 9.55495C45.8912 9.55495 45.1999 10.4869 44.9985 11.3338C46.7251 11.3478 47.8343 11.1183 47.8343 10.2726C47.8343 9.82812 47.4744 9.55495 46.9413 9.55495ZM48.539 15.0475C47.8488 15.4058 46.9131 15.6068 46.0647 15.6068C44.1219 15.6068 43.1858 14.4172 43.1858 12.7102C43.1858 10.602 44.7393 8.30766 47.1575 8.30766C48.539 8.30766 49.4187 9.096 49.4187 10.2726C49.4187 12.0647 47.5324 12.638 44.8266 12.581C44.7968 12.8246 44.8548 13.2976 45.0134 13.5704C45.2872 14.0441 45.7905 14.2877 46.4525 14.2877C47.2448 14.2877 47.8771 14.0867 48.3823 13.8287L48.539 15.0475Z" fill="#111827"/>
<path d="M49.5181 15.4495L50.3383 11.1469C50.5251 10.1576 50.6258 9.08201 50.6967 8.46539H52.151C52.1079 8.9384 52.0652 9.42584 51.9928 9.92848H52.0355C52.5125 8.99576 53.2736 8.30734 54.2242 8.30734C54.3546 8.30734 54.4835 8.32216 54.599 8.32216L54.2673 9.95697C54.1811 9.94215 54.066 9.94215 53.9504 9.94215C52.755 9.94215 51.9928 11.1469 51.7201 12.6381L51.1871 15.4495H49.5181Z" fill="#111827"/>
<path d="M55.8723 9.10425H55.9951C56.1209 9.10425 56.2041 9.03434 56.2041 8.92872C56.2041 8.80981 56.1167 8.75776 55.9909 8.75776C55.9329 8.75776 55.8918 8.76194 55.8723 8.7665V9.10425ZM55.7522 8.68291C55.8132 8.6719 55.9005 8.66392 55.9817 8.66392C56.1091 8.66392 56.1938 8.68975 56.2498 8.7399C56.2959 8.78055 56.3226 8.844 56.3226 8.91695C56.3226 9.037 56.2468 9.11831 56.1491 9.1506V9.15516C56.2201 9.17947 56.2616 9.24596 56.2853 9.3417C56.315 9.46935 56.3371 9.5594 56.3566 9.59549H56.2323C56.2174 9.56738 56.1964 9.48949 56.1728 9.37437C56.1446 9.24672 56.0931 9.19961 55.9848 9.19505H55.8723V9.59549H55.7522V8.68291Z" fill="#111827"/>
<path d="M56.0278 8.30752C55.5703 8.30752 55.1985 8.67795 55.1985 9.13386C55.1985 9.58977 55.5703 9.96057 56.0278 9.96057C56.4854 9.96057 56.8572 9.58977 56.8572 9.13386C56.8572 8.67795 56.4854 8.30752 56.0278 8.30752ZM56.0278 8.43518C56.4145 8.43518 56.7283 8.7471 56.7283 9.13386C56.7283 9.52024 56.4145 9.8333 56.0278 9.8333C55.64 9.8333 55.3258 9.52024 55.3258 9.13386C55.3258 8.7471 55.64 8.43518 56.0278 8.43518Z" fill="#111827"/>
</svg>
