<svg width="15" height="15" viewBox="0 0 15 15" fill="none" xmlns="http://www.w3.org/2000/svg">
<path d="M5.83337 8.66665C6.02347 8.86067 6.25037 9.0148 6.50078 9.12003C6.75119 9.22525 7.02009 9.27945 7.29171 9.27945C7.56333 9.27945 7.83222 9.22525 8.08263 9.12003C8.33305 9.0148 8.55994 8.86067 8.75004 8.66665L11.0834 6.33332C11.4701 5.94655 11.6874 5.42197 11.6874 4.87499C11.6874 4.32801 11.4701 3.80343 11.0834 3.41665C10.6966 3.02988 10.172 2.81259 9.62504 2.81259C9.07806 2.81259 8.55348 3.02988 8.16671 3.41665L7.87504 3.70832" stroke="#FF8142" stroke-width="1.5" stroke-linecap="round" stroke-linejoin="round"/>
<path d="M8.16668 6.33332C7.97659 6.1393 7.74969 5.98517 7.49928 5.87994C7.24886 5.77472 6.97997 5.72052 6.70835 5.72052C6.43673 5.72052 6.16784 5.77472 5.91742 5.87994C5.66701 5.98517 5.44011 6.1393 5.25002 6.33332L2.91668 8.66665C2.52991 9.05343 2.31262 9.578 2.31262 10.125C2.31262 10.672 2.52991 11.1965 2.91668 11.5833C3.30346 11.9701 3.82804 12.1874 4.37502 12.1874C4.922 12.1874 5.44658 11.9701 5.83335 11.5833L6.12502 11.2917" stroke="#FF8142" stroke-width="1.5" stroke-linecap="round" stroke-linejoin="round"/>
</svg>
