<svg width="44" height="44" viewBox="0 0 44 44" fill="none" xmlns="http://www.w3.org/2000/svg">
<rect width="44" height="44" rx="12" fill="#2DD4BF"/>
<path d="M16 30C17.6569 30 19 28.6569 19 27C19 25.3431 17.6569 24 16 24C14.3431 24 13 25.3431 13 27C13 28.6569 14.3431 30 16 30Z" stroke="white" stroke-width="2" stroke-linecap="round" stroke-linejoin="round"/>
<path d="M26 30C27.6569 30 29 28.6569 29 27C29 25.3431 27.6569 24 26 24C24.3431 24 23 25.3431 23 27C23 28.6569 24.3431 30 26 30Z" stroke="white" stroke-width="2" stroke-linecap="round" stroke-linejoin="round"/>
<path d="M19 27V14H29V27M19 18H29" stroke="white" stroke-width="2" stroke-linecap="round" stroke-linejoin="round"/>
</svg>
