<svg width="44" height="44" viewBox="0 0 44 44" fill="none" xmlns="http://www.w3.org/2000/svg">
<rect width="44" height="44" rx="12" fill="#FF8142"/>
<path d="M22 31C20.8181 31 19.6478 30.7672 18.5558 30.3149C17.4639 29.8626 16.4718 29.1997 15.636 28.364C14.8003 27.5282 14.1374 26.5361 13.6851 25.4442C13.2328 24.3522 13 23.1819 13 22C13 20.8181 13.2328 19.6478 13.6851 18.5558C14.1374 17.4639 14.8003 16.4718 15.636 15.636C16.4718 14.8003 17.4639 14.1374 18.5558 13.6851C19.6478 13.2328 20.8181 13 22 13C24.3869 13 26.6761 13.8429 28.364 15.3431C30.0518 16.8434 31 18.8783 31 21C31 22.0609 30.5259 23.0783 29.682 23.8284C28.8381 24.5786 27.6935 25 26.5 25H24C23.5539 24.9928 23.1181 25.135 22.7621 25.404C22.4061 25.673 22.1503 26.0533 22.0353 26.4844C21.9203 26.9155 21.9528 27.3727 22.1276 27.7833C22.3025 28.1938 22.6095 28.5341 23 28.75C23.1997 28.9342 23.3366 29.1764 23.3915 29.4425C23.4465 29.7085 23.4167 29.9851 23.3064 30.2334C23.196 30.4816 23.0107 30.6891 22.7764 30.8266C22.5421 30.9641 22.2705 31.0247 22 31" stroke="white" stroke-width="2" stroke-linecap="round" stroke-linejoin="round"/>
<path d="M17.5 21C17.7761 21 18 20.7761 18 20.5C18 20.2239 17.7761 20 17.5 20C17.2239 20 17 20.2239 17 20.5C17 20.7761 17.2239 21 17.5 21Z" fill="white" stroke="white" stroke-width="2" stroke-linecap="round" stroke-linejoin="round"/>
<path d="M22 18C22.2761 18 22.5 17.7761 22.5 17.5C22.5 17.2239 22.2761 17 22 17C21.7239 17 21.5 17.2239 21.5 17.5C21.5 17.7761 21.7239 18 22 18Z" fill="white" stroke="white" stroke-width="2" stroke-linecap="round" stroke-linejoin="round"/>
<path d="M26.5 21C26.7761 21 27 20.7761 27 20.5C27 20.2239 26.7761 20 26.5 20C26.2239 20 26 20.2239 26 20.5C26 20.7761 26.2239 21 26.5 21Z" fill="white" stroke="white" stroke-width="2" stroke-linecap="round" stroke-linejoin="round"/>
</svg>
