<svg width="327" height="64" viewBox="0 0 327 64" fill="none" xmlns="http://www.w3.org/2000/svg">
<rect width="327" height="64" rx="16" fill="#F9FAFB"/>
<rect x="20.5" y="23.5" width="17" height="17" rx="8.5" stroke="#E5E7EB"/>
<path d="M54.704 37.168C55.856 37.168 56.804 36.724 57.536 35.872L56.6 34.756C56.132 35.272 55.532 35.632 54.776 35.632C53.36 35.632 52.46 34.48 52.46 32.536C52.46 30.64 53.468 29.488 54.8 29.488C55.484 29.488 55.988 29.788 56.444 30.232L57.38 29.092C56.804 28.492 55.904 27.964 54.776 27.964C52.52 27.964 50.648 29.668 50.648 32.596C50.648 35.56 52.46 37.168 54.704 37.168ZM58.823 37H60.587V33.004C60.959 32.032 61.595 31.672 62.111 31.672C62.399 31.672 62.579 31.72 62.819 31.78L63.119 30.268C62.915 30.172 62.699 30.124 62.339 30.124C61.643 30.124 60.911 30.592 60.431 31.48H60.395L60.251 30.292H58.823V37ZM66.7901 37.168C67.6181 37.168 68.4581 36.892 69.1181 36.436L68.5301 35.344C68.0381 35.644 67.5581 35.812 67.0181 35.812C66.0221 35.812 65.3021 35.248 65.1461 34.144H69.2981C69.3341 33.976 69.3701 33.664 69.3701 33.328C69.3701 31.468 68.4221 30.124 66.5621 30.124C64.9781 30.124 63.4421 31.468 63.4421 33.652C63.4421 35.872 64.9061 37.168 66.7901 37.168ZM65.1221 32.968C65.2661 31.984 65.8901 31.48 66.5981 31.48C67.4621 31.48 67.8701 32.056 67.8701 32.968H65.1221ZM73.1987 37.168C73.8947 37.168 74.5667 36.796 75.0587 36.304H75.0947L75.2267 37H76.6667V27.436H74.9027V29.788L74.9747 30.844C74.4827 30.4 74.0147 30.124 73.2587 30.124C71.8187 30.124 70.4387 31.456 70.4387 33.652C70.4387 35.86 71.5187 37.168 73.1987 37.168ZM73.6427 35.716C72.7667 35.716 72.2507 35.032 72.2507 33.628C72.2507 32.284 72.8987 31.564 73.6547 31.564C74.0747 31.564 74.5067 31.708 74.9027 32.08V35.032C74.5187 35.524 74.1227 35.716 73.6427 35.716ZM78.5574 37H80.3214V30.292H78.5574V37ZM79.4334 29.2C80.0454 29.2 80.4654 28.816 80.4654 28.228C80.4654 27.652 80.0454 27.28 79.4334 27.28C78.8214 27.28 78.4134 27.652 78.4134 28.228C78.4134 28.816 78.8214 29.2 79.4334 29.2ZM84.6499 37.168C85.2499 37.168 85.7179 37.036 86.0779 36.916L85.7899 35.632C85.5979 35.704 85.3459 35.788 85.1179 35.788C84.5299 35.788 84.2059 35.428 84.2059 34.66V31.672H85.8739V30.292H84.2059V28.468H82.7419L82.5499 30.292L81.5059 30.364V31.672H82.4419V34.66C82.4419 36.16 83.0539 37.168 84.6499 37.168ZM93.7274 37.168C94.8794 37.168 95.8274 36.724 96.5594 35.872L95.6234 34.756C95.1554 35.272 94.5554 35.632 93.7994 35.632C92.3834 35.632 91.4834 34.48 91.4834 32.536C91.4834 30.64 92.4914 29.488 93.8234 29.488C94.5074 29.488 95.0114 29.788 95.4674 30.232L96.4034 29.092C95.8274 28.492 94.9274 27.964 93.7994 27.964C91.5434 27.964 89.6714 29.668 89.6714 32.596C89.6714 35.56 91.4834 37.168 93.7274 37.168ZM99.4904 37.168C100.258 37.168 100.93 36.796 101.518 36.292H101.566L101.698 37H103.138V33.088C103.138 31.132 102.262 30.124 100.558 30.124C99.4904 30.124 98.5424 30.52 97.7504 31L98.3864 32.176C98.9984 31.804 99.6104 31.54 100.234 31.54C101.062 31.54 101.338 32.032 101.374 32.692C98.6744 32.992 97.5104 33.748 97.5104 35.176C97.5104 36.328 98.2904 37.168 99.4904 37.168ZM100.066 35.788C99.5504 35.788 99.1904 35.56 99.1904 35.044C99.1904 34.432 99.7304 33.988 101.374 33.784V35.14C100.942 35.56 100.57 35.788 100.066 35.788ZM104.936 37H106.7V33.004C107.072 32.032 107.708 31.672 108.224 31.672C108.512 31.672 108.692 31.72 108.932 31.78L109.232 30.268C109.028 30.172 108.812 30.124 108.452 30.124C107.756 30.124 107.024 30.592 106.544 31.48H106.508L106.364 30.292H104.936V37ZM112.339 37.168C113.035 37.168 113.707 36.796 114.199 36.304H114.235L114.367 37H115.807V27.436H114.043V29.788L114.115 30.844C113.623 30.4 113.155 30.124 112.399 30.124C110.959 30.124 109.579 31.456 109.579 33.652C109.579 35.86 110.659 37.168 112.339 37.168ZM112.783 35.716C111.907 35.716 111.391 35.032 111.391 33.628C111.391 32.284 112.039 31.564 112.795 31.564C113.215 31.564 113.647 31.708 114.043 32.08V35.032C113.659 35.524 113.263 35.716 112.783 35.716ZM119.618 37.168C121.358 37.168 122.282 36.232 122.282 35.044C122.282 33.808 121.31 33.352 120.422 33.016C119.702 32.764 119.09 32.572 119.09 32.092C119.09 31.696 119.366 31.432 119.978 31.432C120.47 31.432 120.95 31.672 121.418 32.008L122.222 30.952C121.67 30.52 120.902 30.124 119.93 30.124C118.394 30.124 117.434 30.976 117.434 32.164C117.434 33.304 118.382 33.808 119.234 34.144C119.93 34.408 120.638 34.648 120.638 35.14C120.638 35.56 120.326 35.86 119.654 35.86C119.03 35.86 118.466 35.584 117.854 35.116L117.062 36.232C117.722 36.784 118.718 37.168 119.618 37.168Z" fill="#111827"/>
<g clip-path="url(#clip0_1475_7238)">
<path d="M251.396 26.0185C248.63 26.0185 246.158 27.3773 246.158 29.8879C246.158 32.767 250.542 32.9658 250.542 34.4122C250.542 35.0212 249.806 35.5664 248.548 35.5664C246.763 35.5664 245.428 34.8046 245.428 34.8046L244.858 37.3381C244.858 37.3381 246.395 37.9815 248.435 37.9815C251.46 37.9815 253.84 36.556 253.84 34.0025C253.84 30.9602 249.437 30.7672 249.437 29.4247C249.437 28.9477 250.042 28.4249 251.296 28.4249C252.711 28.4249 253.866 28.9789 253.866 28.9789L254.424 26.5321C254.424 26.5321 253.168 26.0185 251.396 26.0185ZM226.087 26.2031L226.02 26.5725C226.02 26.5725 227.183 26.7743 228.232 27.177C229.581 27.6387 229.677 27.9075 229.905 28.7423L232.382 37.7911H235.702L240.817 26.2031H237.504L234.218 34.0818L232.876 27.4035C232.753 26.6392 232.13 26.2031 231.368 26.2031H226.087ZM242.149 26.2031L239.551 37.7911H242.709L245.299 26.2031H242.149ZM259.768 26.2031C259.006 26.2031 258.603 26.5896 258.306 27.265L253.678 37.7911H256.991L257.632 36.0367H261.668L262.058 37.7911H264.981L262.431 26.2031H259.768ZM260.199 29.3339L261.181 33.6822H258.55L260.199 29.3339Z" fill="#1434CB"/>
</g>
<g clip-path="url(#clip1_1475_7238)">
<path fill-rule="evenodd" clip-rule="evenodd" d="M290.387 38.269H297.346V25.708H290.387V38.269Z" fill="#FF5F00"/>
<path fill-rule="evenodd" clip-rule="evenodd" d="M290.829 31.9885C290.829 29.4401 292.017 27.1705 293.867 25.708C292.514 24.6382 290.807 24 288.952 24C284.56 24 281 27.5766 281 31.9885C281 36.4003 284.56 39.9769 288.952 39.9769C290.807 39.9769 292.514 39.3388 293.867 38.269C292.017 36.8062 290.829 34.5368 290.829 31.9885Z" fill="#EB001B"/>
<path fill-rule="evenodd" clip-rule="evenodd" d="M306.486 36.9386V36.6286H306.405L306.312 36.8418L306.22 36.6286H306.139V36.9386H306.196V36.7047L306.283 36.9064H306.342L306.429 36.7043V36.9386H306.486ZM305.975 36.9386V36.6814H306.078V36.629H305.816V36.6814H305.919V36.9386H305.975ZM306.734 31.9884C306.734 36.4003 303.174 39.9769 298.782 39.9769C296.927 39.9769 295.22 39.3387 293.867 38.2689C295.717 36.8063 296.904 34.5367 296.904 31.9884C296.904 29.4403 295.717 27.1707 293.867 25.7079C295.22 24.6381 296.927 23.9999 298.782 23.9999C303.174 23.9999 306.734 27.5765 306.734 31.9884Z" fill="#F79E1B"/>
</g>
<defs>
<clipPath id="clip0_1475_7238">
<rect width="39" height="12" fill="white" transform="translate(226 26)"/>
</clipPath>
<clipPath id="clip1_1475_7238">
<rect width="26" height="16" fill="white" transform="translate(281 24)"/>
</clipPath>
</defs>
</svg>
