<svg width="327" height="64" viewBox="0 0 327 64" fill="none" xmlns="http://www.w3.org/2000/svg">
<rect width="327" height="64" rx="16" fill="#F9FAFB"/>
<rect x="20.5" y="23.5" width="17" height="17" rx="8.5" fill="white" stroke="#E5E7EB"/>
<path d="M51.092 37V28.12H54.008C55.964 28.12 57.476 28.804 57.476 30.916C57.476 32.944 55.964 33.844 54.056 33.844H52.868V37H51.092ZM52.868 32.44H53.936C55.16 32.44 55.748 31.924 55.748 30.916C55.748 29.872 55.1 29.536 53.876 29.536H52.868V32.44ZM60.0451 37.168C58.8451 37.168 58.0651 36.328 58.0651 35.176C58.0651 33.748 59.2291 32.992 61.9291 32.692C61.8931 32.032 61.6171 31.54 60.7891 31.54C60.1651 31.54 59.5531 31.804 58.9411 32.176L58.3051 31C59.0971 30.52 60.0451 30.124 61.1131 30.124C62.8171 30.124 63.6931 31.132 63.6931 33.088V37H62.2531L62.1211 36.292H62.0731C61.4851 36.796 60.8131 37.168 60.0451 37.168ZM60.6211 35.788C61.1251 35.788 61.4971 35.56 61.9291 35.14V33.784C60.2851 33.988 59.7451 34.432 59.7451 35.044C59.7451 35.56 60.1051 35.788 60.6211 35.788ZM66.067 39.7C65.683 39.7 65.407 39.652 65.155 39.568L65.479 38.212C65.599 38.248 65.779 38.308 65.947 38.308C66.619 38.308 67.003 37.876 67.207 37.276L67.315 36.88L64.699 30.292H66.487L67.543 33.4C67.747 34.012 67.915 34.66 68.119 35.308H68.179C68.323 34.672 68.491 34.036 68.647 33.4L69.583 30.292H71.275L68.887 37.216C68.299 38.788 67.579 39.7 66.067 39.7ZM75.0255 37.168C73.3335 37.168 71.7975 35.872 71.7975 33.652C71.7975 31.42 73.3335 30.124 75.0255 30.124C76.7055 30.124 78.2415 31.42 78.2415 33.652C78.2415 35.872 76.7055 37.168 75.0255 37.168ZM75.0255 35.74C75.9375 35.74 76.4415 34.912 76.4415 33.652C76.4415 32.38 75.9375 31.564 75.0255 31.564C74.1015 31.564 73.5975 32.38 73.5975 33.652C73.5975 34.912 74.1015 35.74 75.0255 35.74ZM79.7293 37V30.292H81.1573L81.3013 31.18H81.3373C81.9133 30.604 82.6093 30.124 83.5213 30.124C84.9613 30.124 85.5973 31.132 85.5973 32.812V37H83.8333V33.04C83.8333 31.984 83.5333 31.636 82.8853 31.636C82.3333 31.636 81.9853 31.9 81.4933 32.38V37H79.7293ZM90.3448 37.168C88.4608 37.168 86.9968 35.872 86.9968 33.652C86.9968 31.468 88.5328 30.124 90.1168 30.124C91.9768 30.124 92.9248 31.468 92.9248 33.328C92.9248 33.664 92.8888 33.976 92.8528 34.144H88.7008C88.8568 35.248 89.5768 35.812 90.5728 35.812C91.1128 35.812 91.5928 35.644 92.0848 35.344L92.6728 36.436C92.0128 36.892 91.1728 37.168 90.3448 37.168ZM88.6768 32.968H91.4248C91.4248 32.056 91.0168 31.48 90.1528 31.48C89.4448 31.48 88.8208 31.984 88.6768 32.968ZM97.3174 37.168C95.4334 37.168 93.9694 35.872 93.9694 33.652C93.9694 31.468 95.5054 30.124 97.0894 30.124C98.9494 30.124 99.8974 31.468 99.8974 33.328C99.8974 33.664 99.8614 33.976 99.8254 34.144H95.6734C95.8294 35.248 96.5494 35.812 97.5454 35.812C98.0854 35.812 98.5654 35.644 99.0574 35.344L99.6454 36.436C98.9854 36.892 98.1454 37.168 97.3174 37.168ZM95.6494 32.968H98.3974C98.3974 32.056 97.9894 31.48 97.1254 31.48C96.4174 31.48 95.7934 31.984 95.6494 32.968ZM101.362 37V30.292H102.79L102.934 31.48H102.97C103.45 30.592 104.182 30.124 104.878 30.124C105.238 30.124 105.454 30.172 105.658 30.268L105.358 31.78C105.118 31.72 104.938 31.672 104.65 31.672C104.134 31.672 103.498 32.032 103.126 33.004V37H101.362Z" fill="#111827"/>
<g clip-path="url(#clip0_1475_7295)">
<path d="M264.573 23.7424C264.643 25.3183 266.009 31.3321 266.009 31.3321C266.512 32.5501 266.944 31.3321 266.944 31.3321C268.597 26.3916 265.219 23.5285 265.219 23.5285C264.356 23.0262 264.573 23.7424 264.573 23.7424ZM284.191 22.8838C284.191 22.8838 285.845 24.0292 284.191 24.2439C284.191 24.2439 278.01 24.9597 273.411 29.257C273.411 29.257 266.512 35.2696 263.925 41.8575C263.925 41.8575 263.063 41.8575 263.351 40.5692C263.638 39.2805 265.362 33.6234 273.051 26.6792C273.051 26.6792 280.455 19.9481 284.191 22.8838Z" fill="#FF4600"/>
<path d="M252.748 32.4159C253.021 32.4733 253.266 32.5014 253.626 32.5014C255.036 32.5014 255.986 31.598 255.986 30.4506C255.986 29.4184 255.252 29.046 254.303 29.046C253.884 29.046 253.568 29.0749 253.367 29.1315L252.748 32.4159ZM251.956 27.9416C252.546 27.7976 253.425 27.7121 254.288 27.7121C255.195 27.7121 256.145 27.8979 256.778 28.4005C257.339 28.8306 257.67 29.4605 257.67 30.3222C257.67 31.4688 257.123 32.4019 256.432 32.9463C255.655 33.5629 254.546 33.8642 253.395 33.8642C253.049 33.8642 252.748 33.8205 252.489 33.7924L251.783 37.4496H250.143L251.956 27.9416Z" fill="#111827"/>
<path d="M262.116 31.6694C261.944 31.6257 261.729 31.5979 261.426 31.5979C259.886 31.5979 258.677 33.3338 258.677 34.9257C258.677 35.6559 258.95 36.2588 259.685 36.2588C260.476 36.2588 261.426 35.2843 261.757 33.5055L262.116 31.6694ZM261.44 37.4495C261.44 37.0327 261.498 36.4743 261.556 35.8854H261.527C260.836 37.1627 259.9 37.6068 259.008 37.6068C257.756 37.6068 256.935 36.6315 256.935 35.2266C256.935 32.846 258.605 30.3073 261.872 30.3073C262.635 30.3073 263.455 30.4506 264.002 30.6227L263.268 34.2654C263.066 35.2976 262.952 36.6175 262.98 37.4495H261.44Z" fill="#111827"/>
<path d="M273.528 34.6815C273.528 35.6412 274.032 36.3171 274.895 36.3171C276.147 36.3171 276.983 34.5953 276.983 33.2044C276.983 32.4867 276.651 31.5977 275.644 31.5977C274.305 31.5977 273.528 33.3765 273.528 34.6815ZM278.709 33.1907C278.709 35.5705 277.054 37.6065 274.665 37.6065C272.894 37.6065 271.801 36.3877 271.801 34.7237C271.801 32.3583 273.456 30.3074 275.845 30.3074C277.731 30.3074 278.709 31.6554 278.709 33.1907Z" fill="#111827"/>
<path d="M279.025 37.4495L279.932 32.6306C280.104 31.7985 280.205 31.0672 280.292 30.4654H281.789L281.631 31.7131H281.659C282.306 30.7803 283.199 30.3073 284.178 30.3073C285.185 30.3073 285.962 30.9103 285.962 32.2294C285.962 32.5443 285.906 33.0318 285.834 33.3764L285.069 37.4495H283.386L284.133 33.5055C284.178 33.2476 284.221 32.9463 284.221 32.6735C284.221 32.0854 284.005 31.6694 283.343 31.6694C282.58 31.6694 281.601 32.5869 281.299 34.2228L280.695 37.4495H279.025Z" fill="#111827"/>
<path d="M290.423 31.555C289.371 31.555 288.681 32.4869 288.48 33.3338C290.206 33.3478 291.316 33.1183 291.316 32.2726C291.316 31.8281 290.956 31.555 290.423 31.555ZM292.02 37.0475C291.329 37.4058 290.394 37.6068 289.544 37.6068C287.603 37.6068 286.667 36.4172 286.667 34.7102C286.667 32.602 288.22 30.3077 290.639 30.3077C292.02 30.3077 292.898 31.096 292.898 32.2726C292.898 34.0647 291.014 34.638 288.308 34.581C288.278 34.8246 288.336 35.2976 288.495 35.5704C288.768 36.0441 289.271 36.2877 289.934 36.2877C290.726 36.2877 291.358 36.0867 291.863 35.8287L292.02 37.0475Z" fill="#111827"/>
<path d="M296.941 31.555C295.891 31.555 295.2 32.4869 294.999 33.3338C296.725 33.3478 297.834 33.1183 297.834 32.2726C297.834 31.8281 297.474 31.555 296.941 31.555ZM298.539 37.0475C297.849 37.4058 296.913 37.6068 296.065 37.6068C294.122 37.6068 293.186 36.4172 293.186 34.7102C293.186 32.602 294.739 30.3077 297.158 30.3077C298.539 30.3077 299.419 31.096 299.419 32.2726C299.419 34.0647 297.532 34.638 294.827 34.581C294.797 34.8246 294.855 35.2976 295.013 35.5704C295.287 36.0441 295.791 36.2877 296.452 36.2877C297.245 36.2877 297.877 36.0867 298.382 35.8287L298.539 37.0475Z" fill="#111827"/>
<path d="M299.518 37.4495L300.338 33.1469C300.525 32.1576 300.626 31.082 300.697 30.4654H302.151C302.108 30.9384 302.065 31.4258 301.993 31.9285H302.035C302.513 30.9958 303.274 30.3073 304.224 30.3073C304.355 30.3073 304.483 30.3222 304.599 30.3222L304.267 31.957C304.181 31.9422 304.066 31.9422 303.95 31.9422C302.755 31.9422 301.993 33.1469 301.72 34.6381L301.187 37.4495H299.518Z" fill="#111827"/>
<path d="M305.872 31.1042H305.995C306.121 31.1042 306.204 31.0343 306.204 30.9287C306.204 30.8098 306.117 30.7578 305.991 30.7578C305.933 30.7578 305.892 30.7619 305.872 30.7665V31.1042ZM305.752 30.6829C305.813 30.6719 305.901 30.6639 305.982 30.6639C306.109 30.6639 306.194 30.6898 306.25 30.7399C306.296 30.7806 306.323 30.844 306.323 30.9169C306.323 31.037 306.247 31.1183 306.149 31.1506V31.1552C306.22 31.1795 306.262 31.246 306.285 31.3417C306.315 31.4694 306.337 31.5594 306.357 31.5955H306.232C306.217 31.5674 306.196 31.4895 306.173 31.3744C306.145 31.2467 306.093 31.1996 305.985 31.1951H305.872V31.5955H305.752V30.6829Z" fill="#111827"/>
<path d="M306.028 30.3075C305.57 30.3075 305.198 30.6779 305.198 31.1339C305.198 31.5898 305.57 31.9606 306.028 31.9606C306.485 31.9606 306.857 31.5898 306.857 31.1339C306.857 30.6779 306.485 30.3075 306.028 30.3075ZM306.028 30.4352C306.414 30.4352 306.728 30.7471 306.728 31.1339C306.728 31.5202 306.414 31.8333 306.028 31.8333C305.64 31.8333 305.326 31.5202 305.326 31.1339C305.326 30.7471 305.64 30.4352 306.028 30.4352Z" fill="#111827"/>
</g>
<defs>
<clipPath id="clip0_1475_7295">
<rect width="57" height="20" fill="white" transform="translate(250 22)"/>
</clipPath>
</defs>
</svg>
