<svg width="327" height="64" viewBox="0 0 327 64" fill="none" xmlns="http://www.w3.org/2000/svg">
<rect width="327" height="64" rx="16" fill="#F9FAFB"/>
<rect x="20.5" y="23.5" width="17" height="17" rx="8.5" stroke="#FF8142"/>
<rect x="23" y="26" width="12" height="12" rx="6" fill="#FF8142"/>
<path d="M51.092 37H52.868V33.844H54.056C55.964 33.844 57.476 32.944 57.476 30.916C57.476 28.804 55.964 28.12 54.008 28.12H51.092V37ZM52.868 32.44V29.536H53.876C55.1 29.536 55.748 29.872 55.748 30.916C55.748 31.924 55.16 32.44 53.936 32.44H52.868ZM60.0451 37.168C60.8131 37.168 61.4851 36.796 62.0731 36.292H62.1211L62.2531 37H63.6931V33.088C63.6931 31.132 62.8171 30.124 61.1131 30.124C60.0451 30.124 59.0971 30.52 58.3051 31L58.9411 32.176C59.5531 31.804 60.1651 31.54 60.7891 31.54C61.6171 31.54 61.8931 32.032 61.9291 32.692C59.2291 32.992 58.0651 33.748 58.0651 35.176C58.0651 36.328 58.8451 37.168 60.0451 37.168ZM60.6211 35.788C60.1051 35.788 59.7451 35.56 59.7451 35.044C59.7451 34.432 60.2851 33.988 61.9291 33.784V35.14C61.4971 35.56 61.1251 35.788 60.6211 35.788ZM66.067 39.7C67.579 39.7 68.299 38.788 68.887 37.216L71.275 30.292H69.583L68.647 33.4C68.491 34.036 68.323 34.672 68.179 35.308H68.119C67.915 34.66 67.747 34.012 67.543 33.4L66.487 30.292H64.699L67.315 36.88L67.207 37.276C67.003 37.876 66.619 38.308 65.947 38.308C65.779 38.308 65.599 38.248 65.479 38.212L65.155 39.568C65.407 39.652 65.683 39.7 66.067 39.7ZM72.3816 39.58H74.1456V37.54L74.0856 36.448C74.5896 36.916 75.1656 37.168 75.7416 37.168C77.2176 37.168 78.5976 35.848 78.5976 33.544C78.5976 31.468 77.6136 30.124 75.9576 30.124C75.2376 30.124 74.5416 30.496 73.9896 30.988H73.9536L73.8096 30.292H72.3816V39.58ZM75.3576 35.716C74.9976 35.716 74.5656 35.596 74.1456 35.224V32.26C74.6016 31.792 75.0096 31.564 75.4536 31.564C76.3896 31.564 76.7856 32.272 76.7856 33.568C76.7856 35.02 76.1616 35.716 75.3576 35.716ZM81.5139 37.168C82.2819 37.168 82.9539 36.796 83.5419 36.292H83.5899L83.7219 37H85.1619V33.088C85.1619 31.132 84.2859 30.124 82.5819 30.124C81.5139 30.124 80.5659 30.52 79.7739 31L80.4099 32.176C81.0219 31.804 81.6339 31.54 82.2579 31.54C83.0859 31.54 83.3619 32.032 83.3979 32.692C80.6979 32.992 79.5339 33.748 79.5339 35.176C79.5339 36.328 80.3139 37.168 81.5139 37.168ZM82.0899 35.788C81.5739 35.788 81.2139 35.56 81.2139 35.044C81.2139 34.432 81.7539 33.988 83.3979 33.784V35.14C82.9659 35.56 82.5939 35.788 82.0899 35.788ZM88.6157 37.168C89.0357 37.168 89.3117 37.096 89.5157 37.024L89.2997 35.716C89.1797 35.74 89.1317 35.74 89.0717 35.74C88.9037 35.74 88.7237 35.608 88.7237 35.188V27.436H86.9597V35.116C86.9597 36.364 87.3797 37.168 88.6157 37.168Z" fill="#111827"/>
<path d="M294.865 41.322L295.211 39.1203L294.439 39.1024H290.752L293.314 22.8563C293.322 22.8066 293.347 22.7614 293.385 22.7288C293.424 22.6962 293.472 22.6784 293.523 22.6787H299.739C301.803 22.6787 303.227 23.1081 303.971 23.9558C304.319 24.3534 304.542 24.769 304.649 25.2263C304.762 25.7061 304.764 26.2794 304.654 26.9786L304.646 27.0296V27.4777L304.994 27.6752C305.26 27.81 305.5 27.9924 305.7 28.2133C305.998 28.5533 306.191 28.9854 306.273 29.4978C306.357 30.0246 306.329 30.6516 306.191 31.3614C306.032 32.1779 305.775 32.8891 305.428 33.471C305.121 33.9923 304.709 34.4438 304.218 34.7965C303.757 35.1239 303.209 35.3724 302.589 35.5315C301.989 35.6879 301.304 35.7668 300.553 35.7668H300.069C299.723 35.7668 299.387 35.8914 299.123 36.1147C298.86 36.3404 298.685 36.6523 298.63 36.9949L298.594 37.193L297.982 41.0735L297.954 41.2159C297.946 41.261 297.934 41.2835 297.915 41.2988C297.897 41.3135 297.875 41.3217 297.852 41.322H294.865Z" fill="#253B80"/>
<path d="M305.324 27.0814C305.306 27.2 305.284 27.3213 305.261 27.4459C304.441 31.6551 301.636 33.1091 298.054 33.1091H296.23C295.792 33.1091 295.423 33.4273 295.354 33.8594L294.421 39.7818L294.156 41.4605C294.146 41.5271 294.15 41.5952 294.168 41.6601C294.186 41.725 294.218 41.7851 294.262 41.8364C294.306 41.8877 294.36 41.9289 294.421 41.9571C294.483 41.9853 294.549 42 294.617 42H297.852C298.235 42 298.56 41.7217 298.62 41.3439L298.652 41.1795L299.261 37.3143L299.3 37.1023C299.36 36.7232 299.686 36.4448 300.069 36.4448H300.553C303.687 36.4448 306.141 35.1723 306.858 31.49C307.157 29.9518 307.002 28.6674 306.21 27.764C305.958 27.4846 305.658 27.2532 305.324 27.0814Z" fill="#179BD7"/>
<path d="M304.467 26.7394C304.205 26.6636 303.939 26.6045 303.669 26.5624C303.137 26.4807 302.6 26.4414 302.062 26.4451H297.189C297.004 26.445 296.824 26.5112 296.683 26.6317C296.542 26.7523 296.449 26.9193 296.421 27.1026L295.384 33.6678L295.354 33.8594C295.387 33.6504 295.493 33.4598 295.653 33.3222C295.814 33.1846 296.019 33.109 296.23 33.1091H298.054C301.636 33.1091 304.441 31.6544 305.261 27.4459C305.285 27.3213 305.306 27.2 305.324 27.0814C305.108 26.9679 304.883 26.8728 304.65 26.797C304.589 26.7768 304.528 26.7576 304.467 26.7394Z" fill="#222D65"/>
<path d="M296.421 27.1026C296.449 26.9193 296.542 26.7522 296.683 26.6317C296.824 26.5112 297.003 26.4452 297.189 26.4458H302.061C302.639 26.4458 303.178 26.4835 303.669 26.5631C304.002 26.6154 304.33 26.6936 304.651 26.797C304.893 26.8772 305.117 26.972 305.325 27.0814C305.569 25.5259 305.323 24.4668 304.482 23.5078C303.555 22.452 301.881 22 299.74 22H293.523C293.086 22 292.713 22.3181 292.645 22.7509L290.056 39.1641C290.044 39.2403 290.048 39.3182 290.069 39.3924C290.09 39.4667 290.127 39.5355 290.177 39.5942C290.227 39.6529 290.289 39.7001 290.359 39.7325C290.429 39.7648 290.505 39.7816 290.583 39.7818H294.421L295.384 33.6678L296.421 27.1026Z" fill="#253B80"/>
</svg>
