<svg width="21" height="20" viewBox="0 0 21 20" fill="none" xmlns="http://www.w3.org/2000/svg">
<path d="M5.25 12.5C6.63071 12.5 7.75 11.3807 7.75 10C7.75 8.61929 6.63071 7.5 5.25 7.5C3.86929 7.5 2.75 8.61929 2.75 10C2.75 11.3807 3.86929 12.5 5.25 12.5Z" stroke="#00334E" stroke-width="1.5" stroke-linecap="round" stroke-linejoin="round"/>
<path d="M15.25 7.5C16.6307 7.5 17.75 6.38071 17.75 5C17.75 3.61929 16.6307 2.5 15.25 2.5C13.8693 2.5 12.75 3.61929 12.75 5C12.75 6.38071 13.8693 7.5 15.25 7.5Z" stroke="#00334E" stroke-width="1.5" stroke-linecap="round" stroke-linejoin="round"/>
<path d="M15.25 17.5C16.6307 17.5 17.75 16.3807 17.75 15C17.75 13.6193 16.6307 12.5 15.25 12.5C13.8693 12.5 12.75 13.6193 12.75 15C12.75 16.3807 13.8693 17.5 15.25 17.5Z" stroke="#00334E" stroke-width="1.5" stroke-linecap="round" stroke-linejoin="round"/>
<path d="M7.5 11.0833L13 13.9166M7.5 8.91659L13 6.08325L7.5 8.91659Z" stroke="#00334E" stroke-width="1.5" stroke-linecap="round" stroke-linejoin="round"/>
</svg>
