<svg width="44" height="44" viewBox="0 0 44 44" fill="none" xmlns="http://www.w3.org/2000/svg">
<rect width="44" height="44" rx="12" fill="#887EF9"/>
<path d="M25 20L29.553 17.724C29.7054 17.6478 29.8748 17.6119 30.045 17.6195C30.2152 17.6272 30.3806 17.6782 30.5256 17.7678C30.6706 17.8574 30.7902 17.9825 30.8733 18.1313C30.9563 18.2801 30.9999 18.4476 31 18.618V25.382C30.9999 25.5524 30.9563 25.7199 30.8733 25.8687C30.7902 26.0175 30.6706 26.1426 30.5256 26.2322C30.3806 26.3217 30.2152 26.3728 30.045 26.3804C29.8748 26.3881 29.7054 26.3522 29.553 26.276L25 24V20Z" stroke="white" stroke-width="2" stroke-linecap="round" stroke-linejoin="round"/>
<path d="M23 16H15C13.8954 16 13 16.8954 13 18V26C13 27.1046 13.8954 28 15 28H23C24.1046 28 25 27.1046 25 26V18C25 16.8954 24.1046 16 23 16Z" stroke="white" stroke-width="2" stroke-linecap="round" stroke-linejoin="round"/>
</svg>
